PathFileType	4	(X/Y/Z)	C:/Users/opensim2020/Desktop/walking_exp_matlab/subject03_walking06_straight_01.trc																																																																																																																																		
DataRate	CameraRate	NumFrames	NumMarkers	Units	OrigDataRate	OrigDataStartFrame	OrigNumFrames																																																																																																																														
100	100	5	44	mm	100	443	362																																																																																																																														
Frame#	Time	LFHD			RFHD			LBHD			RBHD			C7			T10			CLAV			STRN			RBAK			LSHO			LUPA			LELB			LFRM			LWRA			LWRB			LFIN			RSHO			RUPA			RELB			RFRM			RWRA			RWRB			RFIN			LASI			RASI			LPSI			RPSI			LTHI			LKNE			LTIB			LANK			LHEE			LTOE			RTHI			RKNE			RTIB			RANK			RHEE			RTOE			*39			*40			*41			*42			*43		
		X1	Y1	Z1	X2	Y2	Z2	X3	Y3	Z3	X4	Y4	Z4	X5	Y5	Z5	X6	Y6	Z6	X7	Y7	Z7	X8	Y8	Z8	X9	Y9	Z9	X10	Y10	Z10	X11	Y11	Z11	X12	Y12	Z12	X13	Y13	Z13	X14	Y14	Z14	X15	Y15	Z15	X16	Y16	Z16	X17	Y17	Z17	X18	Y18	Z18	X19	Y19	Z19	X20	Y20	Z20	X21	Y21	Z21	X22	Y22	Z22	X23	Y23	Z23	X24	Y24	Z24	X25	Y25	Z25	X26	Y26	Z26	X27	Y27	Z27	X28	Y28	Z28	X29	Y29	Z29	X30	Y30	Z30	X31	Y31	Z31	X32	Y32	Z32	X33	Y33	Z33	X34	Y34	Z34	X35	Y35	Z35	X36	Y36	Z36	X37	Y37	Z37	X38	Y38	Z38	X39	Y39	Z39	X40	Y40	Z40	X41	Y41	Z41	X42	Y42	Z42	X43	Y43	Z43	X44	Y44	Z44
																																																																																																																																					
1	0	-1389.08752	1615.32324	1359.29846	-1388.33984	1623.10413	1492.03845	-1521.8302	1585.56958	1365.60559	-1516.43896	1592.68677	1496.51929	-1556.22949	1424.91711	1430.91626	-1614.79602	1118.66846	1430.71509	-1435.20374	1344.08984	1419.49805	-1406.26221	1174.3468	1407.90723	-1610.31396	1252.45361	1530.15735	-1492.01636	1392.36536	1268.53687	-1555.24597	1213.01904	1179.98096	-1582.47168	1097.80383	1146.07703	-1592.75085	971.87012	1115.28833	-1596.87085	849.00342	1113.23328	-1635.52197	870.78802	1079.44226	-1635.84021	790.01605	1060.52441	-1471.46753	1366.85706	1581.33875	-1453.89478	1148.67566	1656.72864	-1429.2323	1038.16858	1667.20691	-1397.64966	905.11127	1664.07031	-1364.0343	814.56494	1620.14648	-1385.72705	805.17993	1668.85132	-1356.96863	738.18481	1652.71997	-1482.93518	940.50244	1302.8363	-1476.31311	928.35614	1535.20276	-1637.56274	988.33124	1353.55701	-1627.75012	993.15869	1504.30676	-1523.33691	643.97827	1260.54358	-1497.72534	475.51672	1313.55933	-1540.1748	281.30185	1310.23083	-1550.6925	71.81882	1352.24194	-1592.66235	37.15668	1390.0437	-1405.46606	40.93952	1374.06934	-1589.24548	651.32257	1589.36255	-1597.41687	469.49347	1561.30139	-1662.58289	293.59024	1579.59277	-1707.46313	77.20236	1546.14893	-1748.91992	40.40201	1494.73877	-1566.36316	37.85376	1546.09485	NaN	NaN	NaN	NaN	NaN	NaN	NaN	NaN	NaN	NaN	NaN	NaN	NaN	NaN	NaN
2	0.01	-1386.22888	1615.00769	1357.99011	-1385.70337	1622.44885	1490.74451	-1518.88562	1585.50293	1363.92114	-1513.97559	1592.40198	1494.875	-1553.85242	1424.42444	1429.01721	-1611.75391	1117.99426	1429.84729	-1432.65259	1343.78479	1417.78809	-1403.28601	1174.15015	1406.88025	-1607.53674	1252.1665	1529.03162	-1489.69446	1391.51538	1266.70459	-1553.80103	1211.50183	1179.6814	-1581.1228	1095.85059	1147.42554	-1593.12561	969.55408	1118.18433	-1599.36963	846.62378	1117.92896	-1637.27466	868.70844	1083.42761	-1639.7887	787.151	1066.604	-1468.86621	1367.12903	1579.58289	-1450.39807	1149.03601	1654.9115	-1425.58923	1038.51038	1665.14258	-1393.77344	905.56238	1661.85425	-1360.25464	814.99976	1617.58008	-1381.57776	805.55292	1666.46826	-1352.70288	738.05994	1649.7439	-1479.10742	939.64386	1302.66223	-1473.16577	928.09418	1535.15735	-1633.95227	987.53363	1352.95105	-1624.70044	992.5694	1503.76501	-1521.37939	642.59949	1260.34375	-1496.26794	474.79807	1314.3031	-1540.0791	280.37695	1310.93176	-1551.18896	71.18208	1353.10864	-1593.21912	35.86267	1390.41821	-1405.61731	39.89239	1373.95264	-1585.55688	650.61212	1589.53955	-1593.29932	468.81989	1561.19983	-1660.18994	293.3277	1579.42163	-1707.11133	77.28399	1546.1217	-1748.74609	40.67595	1494.69666	-1566.29602	37.78413	1546.13318	NaN	NaN	NaN	NaN	NaN	NaN	NaN	NaN	NaN	NaN	NaN	NaN	NaN	NaN	NaN
3	0.02	-1383.15308	1614.74304	1356.61646	-1383.03162	1621.89685	1489.43958	-1515.93481	1585.54102	1362.07483	-1511.448	1592.09387	1493.00134	-1551.47791	1424.00476	1426.87903	-1608.68799	1117.28101	1428.84424	-1430.09106	1343.5835	1416.04761	-1400.63379	1173.97437	1405.7478	-1604.9624	1251.97705	1527.6001	-1487.09021	1390.50293	1264.698	-1551.24634	1209.81067	1179.79761	-1579.45471	1093.69202	1148.66809	-1592.94177	967.22437	1121.1499	-1601.27124	844.16034	1122.94482	-1638.13403	866.39673	1087.45239	-1643.07397	783.98853	1073.12903	-1466.50012	1367.42773	1577.79541	-1447.18994	1149.37634	1653.11169	-1422.15247	1038.86328	1663.09131	-1390.01428	905.96094	1659.67285	-1356.61682	815.63214	1615.26123	-1377.53088	806.03979	1664.16138	-1348.63171	738.31012	1646.70361	-1474.64807	939.11249	1302.64063	-1469.95776	927.88953	1535.08789	-1630.25574	986.74323	1352.19006	-1621.60352	991.83899	1503.11462	-1518.90369	641.31158	1260.66394	-1494.78943	472.95407	1314.86145	-1540.56311	279.6759	1311.0282	-1552.26489	70.76918	1353.37073	-1593.39185	34.58775	1390.61597	-1405.12354	39.37674	1374.25854	-1581.35706	649.89551	1589.64258	-1588.53113	467.97403	1560.98511	-1657.43347	292.91782	1579.20837	-1706.79053	77.56573	1546.15393	-1748.61279	41.01024	1494.69006	-1566.26379	37.7022	1546.20532	NaN	NaN	NaN	NaN	NaN	NaN	NaN	NaN	NaN	NaN	NaN	NaN	NaN	NaN	NaN
4	0.03	-1379.76648	1614.495	1355.17151	-1380.39624	1621.45642	1488.09033	-1512.81311	1585.68933	1360.08057	-1508.80981	1591.97717	1491.05957	-1549.01221	1423.63647	1424.5708	-1605.58179	1116.66187	1427.74402	-1427.479	1343.48523	1414.35352	-1397.46301	1173.87646	1404.92896	-1602.46985	1251.77087	1525.87354	-1484.42151	1389.50464	1262.53369	-1548.45923	1207.87756	1179.47498	-1577.48254	1091.45776	1149.78857	-1592.1106	964.85425	1124.08948	-1602.32166	841.72321	1128.2865	-1638.31348	863.84583	1091.33887	-1645.87854	780.90771	1080.12354	-1464.23804	1367.69861	1575.94495	-1444.23279	1149.68262	1651.20374	-1418.87622	1039.17908	1661.14099	-1386.40125	906.41901	1657.42432	-1352.97803	816.11041	1612.70984	-1373.56274	806.51776	1661.94568	-1345.02026	738.94629	1644.31641	-1471.49683	937.98303	1302.22253	-1466.65979	927.80042	1535.047	-1626.53638	986.05743	1351.37585	-1618.43347	991.10181	1502.48157	-1516.6488	640.45728	1260.45728	-1493.65466	472.24542	1315.23608	-1540.3053	279.12946	1311.21777	-1552.02393	70.4509	1353.65381	-1593.12366	34.16344	1390.85815	-1404.46765	38.17741	1373.55029	-1576.65479	649.0415	1589.64429	-1583.70325	467.31195	1560.61841	-1654.41895	292.5769	1578.88831	-1706.31445	77.88091	1546.12671	-1748.37976	41.55935	1494.69421	-1566.14502	37.6398	1546.27649	NaN	NaN	NaN	NaN	NaN	NaN	NaN	NaN	NaN	NaN	NaN	NaN	NaN	NaN	NaN
5	0.04	-1376.35498	1614.39172	1353.63086	-1377.64673	1621.16272	1486.72327	-1509.64575	1585.99207	1358.00574	-1506.0459	1592.04565	1488.77844	-1546.46167	1423.47559	1422.03906	-1602.44202	1116.21924	1426.62549	-1424.84961	1343.46313	1412.53235	-1394.41345	1173.91504	1403.86426	-1600.1676	1251.64673	1523.80164	-1481.56873	1388.41931	1260.27087	-1545.92847	1205.93335	1178.87512	-1575.29749	1089.28809	1150.70581	-1590.67749	962.23419	1126.89758	-1602.68909	839.10632	1133.43103	-1637.64404	861.1557	1095.297	-1647.76843	777.54541	1087.29553	-1462.02588	1368.10046	1574.13806	-1441.41345	1150.12292	1649.396	-1415.76917	1039.62292	1659.22473	-1382.8988	906.94501	1655.19971	-1349.37244	816.67981	1610.3573	-1369.75818	807.04712	1659.66223	-1341.35254	739.94574	1641.95129	-1467.66248	937.37701	1301.96875	-1463.26355	927.75214	1534.84717	-1622.73694	985.51025	1350.57617	-1615.20435	990.41266	1501.79028	-1514.17957	640.47748	1260.89539	-1493.3551	471.7554	1315.32214	-1539.27051	278.83636	1311.05139	-1551.18201	70.33132	1353.59277	-1594.93591	36.22805	1391.13416	-1403.34277	37.31561	1373.51123	-1571.57202	648.29102	1589.53247	-1578.42505	466.59946	1560.10278	-1651.19165	292.40817	1578.49915	-1705.68237	78.29771	1546.07239	-1748.10205	42.22934	1494.5885	-1565.98413	37.60478	1546.34045	NaN	NaN	NaN	NaN	NaN	NaN	NaN	NaN	NaN	NaN	NaN	NaN	NaN	NaN	NaN
